# Blender v3.0.0 OBJ File: 'Model2.blend'
# www.blender.org
mtllib Chonky.mtl
o Cube
v 0.940925 5.519552 -0.423379
v 0.612183 4.661543 -0.408282
v 0.940951 5.523278 0.028378
v 0.614431 4.658633 0.193582
v 0.000000 5.687878 -0.546795
v 0.000000 4.609691 -0.605376
v 0.000000 5.492222 0.205602
v 0.000000 4.585072 0.365782
v 0.697773 3.601628 -0.391396
v 0.697875 3.601700 0.320066
v 0.000000 3.508685 -0.527876
v 0.000000 3.466983 0.366314
v 0.926370 1.893049 -0.082402
v 0.926370 1.893049 0.228056
v 0.517529 1.895695 -0.189522
v 0.517529 1.895695 0.336588
v 1.189613 0.171669 -0.227034
v 1.242363 0.171669 -0.008567
v 0.951231 0.173212 -0.289862
v 0.824850 0.173212 -0.069189
v 0.746399 4.897861 -0.356676
v 0.000000 4.813103 0.322569
v 0.747838 4.895423 0.090821
v 0.000000 4.873477 -0.605376
v 1.134732 5.377077 -0.445130
v 1.134731 5.380875 0.028502
v 1.150499 5.094656 -0.445130
v 1.150499 5.068069 0.001916
v 1.432925 3.265644 -0.280785
v 1.432925 3.265644 -0.063681
v 1.631302 3.264211 -0.280785
v 1.631302 3.264211 -0.063681
v 1.349716 2.850318 -0.225641
v 1.349716 2.850318 -0.075111
v 1.684990 2.789279 -0.274439
v 1.684990 2.789279 -0.123909
v 1.214956 4.055938 -0.385802
v 1.214956 4.055938 0.041337
v 1.567046 4.090024 0.041337
v 1.567046 4.090024 -0.385802
v 1.188209 -0.045157 -0.227034
v 1.240960 -0.045157 -0.008567
v 0.949827 -0.043614 -0.289862
v 0.823446 -0.043614 -0.069189
v 0.912271 0.055137 0.442888
v 1.228995 0.053594 0.366736
v 0.910445 -0.043614 0.442959
v 1.227169 -0.045157 0.366807
v 0.963880 0.234833 -0.255703
v 0.875529 0.234833 -0.083970
v 1.180977 0.233668 -0.045167
v 1.144100 0.233668 -0.208204
v 0.339825 5.623476 -0.036317
v 0.000000 5.758189 -0.054638
v 0.331531 5.652578 -0.289517
v 0.000000 5.826615 -0.493736
v 0.370732 6.219283 -0.025694
v 0.000000 5.954835 -0.094273
v 0.343964 6.230303 -0.392819
v 0.000000 6.272605 -0.470890
v 0.633947 4.082653 0.266540
v 0.633822 4.083635 -0.353344
v 0.000000 3.959641 -0.541140
v 0.000000 3.966073 0.377567
v 0.503484 6.509511 0.006592
v 0.418475 6.617884 -0.383970
v 0.000000 6.529944 -0.574473
v 0.371814 6.952371 0.023906
v 0.000000 7.041061 0.036203
v 0.404105 7.012080 -0.452993
v 0.000000 7.021842 -0.544948
v 0.338756 6.263145 0.328682
v 0.000000 5.936164 0.291330
v 0.316651 6.488790 0.340944
v 0.000000 6.440233 0.354390
v 0.000000 6.934229 0.320383
v 0.294961 6.688727 0.351820
v 0.223905 5.727540 -0.119675
v 0.000000 6.026557 0.007768
v 0.000000 5.917177 -0.477776
v 0.210088 5.736285 -0.275781
v 0.237723 5.998724 -0.083544
v 0.000000 6.156154 -0.442166
v 0.000000 6.060693 -0.034496
v 0.220032 6.007503 -0.309847
v 1.372793 2.543186 -0.202442
v 1.372793 2.543186 -0.120567
v 1.555152 2.509987 -0.228983
v 1.555152 2.509987 -0.147109
v -0.940925 5.519552 -0.423379
v -0.612183 4.661543 -0.408282
v -0.940951 5.523278 0.028378
v -0.614431 4.658633 0.193582
v -0.697773 3.601628 -0.391396
v -0.697875 3.601700 0.320066
v -0.926370 1.893049 -0.082402
v -0.926370 1.893049 0.228056
v -0.517529 1.895695 -0.189522
v -0.517529 1.895695 0.336588
v -1.189613 0.171669 -0.227034
v -1.242363 0.171669 -0.008567
v -0.951231 0.173212 -0.289862
v -0.824850 0.173212 -0.069189
v -0.746399 4.897861 -0.356676
v -0.747838 4.895423 0.090821
v -1.134732 5.377077 -0.445130
v -1.134731 5.380875 0.028502
v -1.150499 5.094656 -0.445130
v -1.150499 5.068069 0.001916
v -1.432925 3.265644 -0.280785
v -1.432925 3.265644 -0.063681
v -1.631302 3.264211 -0.280785
v -1.631302 3.264211 -0.063681
v -1.349716 2.850318 -0.225641
v -1.349716 2.850318 -0.075111
v -1.684990 2.789279 -0.274439
v -1.684990 2.789279 -0.123909
v -1.214956 4.055938 -0.385802
v -1.214956 4.055938 0.041337
v -1.567046 4.090024 0.041337
v -1.567046 4.090024 -0.385802
v -1.188209 -0.045157 -0.227034
v -1.240960 -0.045157 -0.008567
v -0.949827 -0.043614 -0.289862
v -0.823446 -0.043614 -0.069189
v -0.912271 0.055137 0.442888
v -1.228995 0.053594 0.366736
v -0.910445 -0.043614 0.442959
v -1.227169 -0.045157 0.366807
v -0.963880 0.234833 -0.255703
v -0.875529 0.234833 -0.083970
v -1.180977 0.233668 -0.045167
v -1.144100 0.233668 -0.208204
v -0.339825 5.623476 -0.036317
v -0.331531 5.652578 -0.289517
v -0.370732 6.219283 -0.025694
v -0.343964 6.230303 -0.392819
v -0.633947 4.082653 0.266540
v -0.633822 4.083635 -0.353344
v -0.503484 6.509511 0.006592
v -0.418475 6.617884 -0.383970
v -0.371814 6.952371 0.023906
v -0.404105 7.012080 -0.452993
v -0.338756 6.263145 0.328682
v -0.316651 6.488790 0.340944
v -0.294961 6.688727 0.351820
v -0.223905 5.727540 -0.119675
v -0.210088 5.736285 -0.275781
v -0.237723 5.998724 -0.083544
v -0.220032 6.007503 -0.309847
v -1.372793 2.543186 -0.202442
v -1.372793 2.543186 -0.120567
v -1.555152 2.509987 -0.228983
v -1.555152 2.509987 -0.147109
vt 0.625000 0.250000
vt 0.625000 0.500000
vt 0.625000 0.500000
vt 0.436246 0.750000
vt 0.626144 0.970593
vt 0.436246 1.000000
vt 0.375000 0.750000
vt 0.375000 0.500000
vt 0.375000 0.500000
vt 0.625000 0.750000
vt 0.625000 0.500000
vt 0.436246 0.500000
vt 0.436246 0.250000
vt 0.375000 0.750000
vt 0.375000 0.500000
vt 0.375000 0.250000
vt 0.375000 0.250000
vt 0.375000 1.000000
vt 0.000000 0.000000
vt 0.000000 0.000000
vt 0.000000 0.000000
vt 0.375000 0.250000
vt 0.375000 1.000000
vt 0.375000 0.750000
vt 0.000000 0.000000
vt 0.000000 0.000000
vt 0.000000 0.000000
vt 0.375000 0.500000
vt 0.375000 0.750000
vt 0.375000 0.500000
vt 0.375000 0.750000
vt 0.375000 0.500000
vt 0.375000 0.250000
vt 0.375000 0.250000
vt 0.375000 1.000000
vt 0.375000 0.750000
vt 0.375000 0.500000
vt 0.375000 0.250000
vt 0.375000 0.750000
vt 0.375000 1.000000
vt 0.436246 0.750000
vt 0.436246 0.500000
vt 0.436246 0.500000
vt 0.436246 0.750000
vt 0.436246 0.750000
vt 0.625000 0.750000
vt 0.436246 0.750000
vt 0.436246 0.750000
vt 0.436246 0.750000
vt 0.436246 0.750000
vt 0.436246 0.500000
vt 0.436246 0.500000
vt 0.436246 0.500000
vt 0.436246 0.500000
vt 0.436246 0.500000
vt 0.436246 0.500000
vt 0.436246 0.500000
vt 0.125000 0.750000
vt 0.125000 0.500000
vt 0.375000 0.250000
vt 0.000000 0.000000
vt 0.000000 0.000000
vt 0.000000 0.000000
vt 0.375000 1.000000
vt 0.375000 0.750000
vt 0.375000 0.750000
vt 0.125000 0.750000
vt 0.375000 1.000000
vt 0.626144 0.970593
vt 0.625000 0.750000
vt 0.626144 0.970593
vt 0.625000 0.750000
vt 0.626144 0.970593
vt 0.625000 0.750000
vt 0.625000 0.750000
vt 0.625000 0.250000
vt 0.625000 0.500000
vt 0.625000 0.500000
vt 0.625000 0.750000
vt 0.625000 0.500000
vt 0.625000 0.250000
vt 0.625000 0.500000
vt 0.625000 0.250000
vt 0.875000 0.683082
vt 0.625000 0.750000
vt 0.875000 0.683082
vt 0.625000 0.750000
vt 0.626144 0.970593
vt 0.626144 0.970593
vt 0.626144 0.970593
vt 0.625000 0.750000
vt 0.625000 0.750000
vt 0.625000 0.250000
vt 0.625000 0.500000
vt 0.626144 0.970593
vt 0.625000 0.250000
vt 0.436246 0.750000
vt 0.436246 0.750000
vt 0.625000 0.500000
vt 0.625000 0.500000
vt 0.436246 0.750000
vt 0.625000 0.750000
vt 0.375000 0.500000
vt 0.375000 0.750000
vt 0.375000 0.500000
vt 0.625000 0.750000
vt 0.436246 0.500000
vt 0.375000 0.500000
vt 0.375000 0.750000
vt 0.000000 0.000000
vt 0.000000 0.000000
vt 0.000000 0.000000
vt 0.375000 0.250000
vt 0.375000 1.000000
vt 0.375000 1.000000
vt 0.000000 0.000000
vt 0.000000 0.000000
vt 0.375000 0.500000
vt 0.375000 0.750000
vt 0.375000 0.750000
vt 0.375000 0.750000
vt 0.375000 0.500000
vt 0.375000 0.250000
vt 0.375000 0.250000
vt 0.375000 1.000000
vt 0.375000 1.000000
vt 0.375000 0.500000
vt 0.375000 0.750000
vt 0.436246 0.750000
vt 0.625000 0.500000
vt 0.436246 0.500000
vt 0.436246 0.750000
vt 0.436246 0.500000
vt 0.436246 0.750000
vt 0.436246 0.750000
vt 0.436246 0.750000
vt 0.436246 0.750000
vt 0.436246 0.500000
vt 0.436246 0.500000
vt 0.436246 0.500000
vt 0.436246 0.500000
vt 0.436246 0.500000
vt 0.436246 0.500000
vt 0.436246 0.750000
vt 0.125000 0.750000
vt 0.375000 0.500000
vt 0.125000 0.500000
vt 0.000000 0.000000
vt 0.000000 0.000000
vt 0.000000 0.000000
vt 0.000000 0.000000
vt 0.375000 0.750000
vt 0.375000 1.000000
vt 0.375000 0.750000
vt 0.125000 0.750000
vt 0.375000 0.750000
vt 0.000000 0.000000
vt 0.625000 0.750000
vt 0.625000 0.750000
vt 0.625000 0.750000
vt 0.625000 0.750000
vt 0.625000 0.750000
vt 0.625000 0.500000
vt 0.625000 0.500000
vt 0.625000 0.500000
vt 0.625000 0.250000
vt 0.625000 0.500000
vt 0.875000 0.500000
vt 0.625000 0.750000
vt 0.625000 0.750000
vt 0.625000 0.750000
vt 0.625000 0.750000
vt 0.625000 0.500000
vt 0.436246 0.750000
vt 0.436246 0.500000
vt 0.436246 0.750000
vt 0.000000 0.000000
vt 0.000000 0.000000
vt 0.375000 1.000000
vt 0.375000 0.250000
vt 0.000000 0.000000
vt 0.375000 1.000000
vn 0.0000 0.3372 -0.9414
vn 0.3589 0.9303 -0.0754
vn 0.3140 0.6751 -0.6675
vn 0.2753 -0.2199 0.9359
vn 0.0000 0.4406 0.8977
vn 0.0000 0.1880 0.9821
vn 0.7543 0.1215 0.6452
vn 0.7560 0.0536 -0.6524
vn 0.8095 0.0567 -0.5843
vn 0.6702 0.3395 0.6599
vn 0.6471 0.3726 -0.6651
vn 0.0716 -0.3413 -0.9372
vn 0.0000 0.0382 -0.9993
vn 0.7199 0.1100 0.6853
vn 0.8082 0.0909 -0.5818
vn 0.0000 -0.0302 -0.9995
vn 0.0000 -0.2253 -0.9743
vn 0.0000 0.0280 0.9996
vn -0.8326 0.2270 0.5051
vn -0.3750 0.2484 -0.8931
vn -0.8643 0.5016 0.0359
vn -0.5928 -0.2463 -0.7667
vn -0.5374 -0.2705 0.7987
vn 0.7736 0.0152 0.6335
vn 0.0000 -0.1829 0.9831
vn 0.7017 0.2895 -0.6510
vn 0.7279 -0.6817 -0.0740
vn 0.5638 -0.6112 -0.5554
vn 0.6074 0.4971 0.6196
vn 0.6271 0.4017 -0.6673
vn -0.3539 0.2726 -0.8947
vn 0.7942 0.5898 0.1463
vn 0.7266 -0.1321 -0.6742
vn 0.0000 -0.0475 -0.9988
vn 0.7270 0.0405 0.6854
vn 0.0000 0.1239 0.9923
vn 0.7167 0.1613 0.6784
vn 0.5786 0.1153 -0.8074
vn -0.6070 -0.3107 -0.7314
vn -0.6565 -0.0898 0.7490
vn -0.6013 -0.2818 0.7476
vn 0.3666 0.6989 0.6141
vn 0.7131 0.0000 0.7010
vn -0.6895 -0.0283 0.7237
vn 0.7828 -0.1779 0.5963
vn 0.7075 0.1392 0.6928
vn 0.7040 -0.0072 -0.7101
vn 0.7213 0.1157 -0.6829
vn -0.6430 -0.1336 -0.7541
vn -0.7809 0.0045 -0.6246
vn 0.3267 -0.7410 -0.5866
vn -0.6445 -0.5664 -0.5136
vn 0.6869 -0.1596 -0.7089
vn -0.7612 -0.6345 -0.1340
vn -0.3147 -0.5893 -0.7441
vn -0.4529 0.4903 0.7446
vn 0.6162 -0.5999 0.5103
vn 0.6572 0.4704 0.5889
vn -0.4584 -0.5685 0.6831
vn 0.0000 0.9994 -0.0356
vn 0.8316 -0.5501 0.0760
vn 0.0000 -0.6287 -0.7776
vn 0.2347 0.8819 0.4089
vn 0.0000 0.2728 0.9620
vn 0.9936 -0.0363 0.1069
vn 0.6178 -0.3518 0.7032
vn 0.0000 -0.1861 -0.9825
vn 0.6880 -0.3774 -0.6198
vn 0.7938 -0.2863 -0.5365
vn 0.7411 -0.3083 0.5965
vn 0.8183 -0.0090 -0.5747
vn 0.0000 0.6422 -0.7665
vn 0.6530 0.5456 -0.5252
vn 0.0000 -0.0978 -0.9952
vn 0.0000 0.9782 0.2073
vn 0.6967 0.6625 0.2751
vn 0.0000 0.6496 0.7602
vn 0.4985 0.2406 0.8329
vn 0.0000 -0.0425 0.9991
vn 0.0000 -0.8449 0.5349
vn 0.5269 0.0082 0.8498
vn 0.7077 0.5405 0.4550
vn 0.0000 0.3439 -0.9390
vn 0.8133 0.5208 -0.2593
vn 0.0000 0.3388 0.9409
vn 0.0000 0.0714 -0.9974
vn 0.4035 -0.7572 0.5136
vn -0.5669 -0.5783 0.5866
vn -0.3589 0.9303 -0.0754
vn -0.3140 0.6751 -0.6675
vn -0.2753 -0.2199 0.9359
vn -0.3666 0.6989 0.6141
vn -0.7560 0.0536 -0.6524
vn -0.7543 0.1215 0.6452
vn -0.8095 0.0567 -0.5843
vn -0.6702 0.3395 0.6599
vn -0.0716 -0.3413 -0.9372
vn -0.8082 0.0909 -0.5818
vn -0.7199 0.1100 0.6853
vn 0.8326 0.2270 0.5051
vn 0.3750 0.2484 -0.8931
vn 0.3539 0.2726 -0.8947
vn 0.5928 -0.2463 -0.7667
vn 0.5374 -0.2705 0.7987
vn -0.7017 0.2895 -0.6510
vn -0.7279 -0.6817 -0.0740
vn -0.7942 0.5898 0.1463
vn -0.6074 0.4971 0.6196
vn -0.6271 0.4017 -0.6673
vn 0.8643 0.5016 0.0359
vn -0.7266 -0.1321 -0.6742
vn -0.7270 0.0405 0.6854
vn -0.7167 0.1613 0.6784
vn -0.6471 0.3726 -0.6651
vn -0.5786 0.1153 -0.8074
vn 0.6565 -0.0898 0.7490
vn 0.6070 -0.3107 -0.7314
vn 0.6013 -0.2818 0.7476
vn -0.7131 0.0000 0.7010
vn 0.6895 -0.0283 0.7237
vn -0.7075 0.1392 0.6928
vn -0.7040 -0.0072 -0.7101
vn -0.7213 0.1157 -0.6829
vn 0.6430 -0.1336 -0.7541
vn 0.7809 0.0045 -0.6246
vn -0.3267 -0.7410 -0.5866
vn -0.6869 -0.1596 -0.7089
vn -0.7828 -0.1779 0.5963
vn 0.7612 -0.6345 -0.1340
vn -0.5638 -0.6112 -0.5554
vn 0.3147 -0.5893 -0.7441
vn 0.4529 0.4903 0.7446
vn -0.6162 -0.5999 0.5103
vn -0.6572 0.4704 0.5889
vn 0.4584 -0.5685 0.6831
vn -0.7736 0.0152 0.6335
vn -0.8316 -0.5501 0.0760
vn -0.7411 -0.3083 0.5965
vn -0.2347 0.8819 0.4089
vn -0.6178 -0.3518 0.7032
vn -0.9936 -0.0363 0.1069
vn -0.6880 -0.3774 -0.6198
vn -0.7938 -0.2863 -0.5365
vn -0.8183 -0.0090 -0.5747
vn 0.0000 -0.3150 -0.9491
vn -0.6530 0.5456 -0.5252
vn -0.6967 0.6625 0.2751
vn -0.4985 0.2406 0.8329
vn -0.5269 0.0082 0.8498
vn -0.7077 0.5405 0.4550
vn -0.8133 0.5208 -0.2593
vn -0.4035 -0.7572 0.5136
vn 0.6445 -0.5664 -0.5136
vn 0.5669 -0.5783 0.5866
usemtl Material
s 1
f 5/1/1 55/2/2 1/3/3
f 23/4/4 7/5/5 22/6/6
f 61/7/7 9/8/8 62/9/9
f 1/3/3 26/10/10 25/11/11
f 5/1/1 21/12/12 24/13/13
f 10/14/14 13/15/15 9/8/8
f 63/16/16 9/8/8 11/17/17
f 64/18/18 10/14/14 61/7/7
f 50/19/19 19/20/20 20/21/21
f 9/8/8 15/22/22 11/17/17
f 10/14/14 16/23/23 14/24/24
f 12/25/25 15/26/22 16/27/23
f 17/28/26 42/29/27 41/30/28
f 51/31/29 17/28/26 52/32/30
f 52/32/30 19/33/20 49/34/31
f 51/31/29 20/35/21 18/36/32
f 24/13/13 2/37/33 6/38/34
f 2/37/33 23/4/4 4/39/35
f 4/39/35 22/6/6 8/40/36
f 25/11/11 28/41/37 27/42/38
f 37/43/39 30/44/40 38/45/41
f 3/46/42 28/41/37 26/10/10
f 1/3/3 27/42/38 21/12/12
f 32/47/43 34/48/44 36/49/45
f 39/50/46 30/44/40 32/47/43
f 39/50/46 31/51/47 40/52/48
f 40/52/48 29/53/49 37/43/39
f 33/54/50 88/55/51 86/56/52
f 31/51/47 36/49/45 35/57/53
f 31/51/47 33/54/50 29/53/49
f 30/44/40 33/54/50 34/48/44
f 27/42/38 37/43/39 21/12/12
f 28/41/37 40/52/48 27/42/38
f 28/41/37 38/45/41 39/50/46
f 21/12/12 38/45/41 23/4/4
f 41/30/28 44/58/54 43/59/55
f 19/33/20 41/30/28 43/60/55
f 44/61/54 45/62/56 20/21/21
f 20/21/21 43/63/55 44/61/54
f 45/64/56 48/65/57 46/66/58
f 18/36/32 45/64/56 46/66/58
f 42/29/27 46/66/58 48/65/57
f 42/29/27 47/67/59 44/58/54
f 14/24/24 50/68/19 51/31/29
f 13/15/15 49/34/31 15/22/22
f 13/15/15 51/31/29 52/32/30
f 15/26/22 50/19/19 16/27/23
f 84/69/60 57/70/61 58/71/62
f 7/5/5 53/72/63 54/73/64
f 3/46/42 55/2/2 53/72/63
f 65/74/65 72/75/66 57/70/61
f 83/76/67 59/77/68 85/78/69
f 85/78/69 57/70/61 82/79/70
f 8/40/36 61/7/7 4/39/35
f 6/38/34 62/9/9 63/16/16
f 4/39/35 62/9/9 2/37/33
f 66/80/71 71/81/72 70/82/73
f 59/77/68 67/83/74 66/80/71
f 59/77/68 65/74/65 57/70/61
f 70/82/73 69/84/75 68/85/76
f 66/80/71 68/85/76 65/74/65
f 68/85/76 76/86/77 77/87/78
f 72/75/66 75/88/79 73/89/80
f 75/88/79 77/87/78 76/90/77
f 65/74/65 77/87/78 74/91/81
f 57/70/61 73/89/80 58/71/62
f 55/2/2 78/92/82 53/72/63
f 56/93/83 81/94/84 55/2/2
f 54/73/64 78/92/82 79/95/85
f 81/94/84 82/79/70 78/92/82
f 80/96/86 85/78/69 81/94/84
f 79/95/85 82/79/70 84/69/60
f 86/56/52 89/97/87 87/98/88
f 33/54/50 87/98/88 34/48/44
f 36/49/45 87/98/88 89/97/87
f 36/49/45 88/55/51 35/57/53
f 135/99/89 5/1/1 90/100/90
f 105/101/91 7/5/5 92/102/92
f 94/103/93 138/104/94 139/105/95
f 90/100/90 107/106/96 92/102/92
f 104/107/97 5/1/1 24/13/13
f 96/108/98 95/109/99 94/103/93
f 63/16/16 94/103/93 139/105/95
f 95/109/99 64/18/18 138/104/94
f 131/110/100 102/111/101 130/112/102
f 98/113/103 94/103/93 11/17/17
f 95/109/99 99/114/104 12/115/25
f 12/25/25 98/116/103 11/117/17
f 100/118/105 123/119/106 101/120/107
f 100/118/105 132/121/108 133/122/109
f 102/123/101 133/122/109 130/124/102
f 132/121/108 103/125/110 131/126/100
f 91/127/111 24/13/13 6/38/34
f 91/127/111 105/101/91 104/107/97
f 93/128/112 22/6/6 105/101/91
f 109/129/113 106/130/114 108/131/115
f 111/132/116 118/133/117 119/134/118
f 92/102/92 109/129/113 105/101/91
f 108/131/115 90/100/90 104/107/97
f 113/135/119 115/136/120 111/132/116
f 120/137/121 111/132/116 119/134/118
f 112/138/122 120/137/121 121/139/123
f 110/140/124 121/139/123 118/133/117
f 114/141/125 153/142/126 116/143/127
f 112/138/122 117/144/128 113/135/119
f 114/141/125 112/138/122 110/140/124
f 111/132/116 114/141/125 110/140/124
f 118/133/117 108/131/115 104/107/97
f 121/139/123 109/129/113 108/131/115
f 109/129/113 119/134/118 105/101/91
f 119/134/118 104/107/97 105/101/91
f 125/145/129 122/146/130 124/147/131
f 102/123/101 122/146/130 100/118/105
f 126/148/132 125/149/129 103/150/110
f 103/150/110 124/151/131 102/111/101
f 129/152/133 126/153/132 127/154/134
f 101/120/107 126/153/132 103/125/110
f 123/119/106 127/154/134 101/120/107
f 128/155/135 123/119/106 125/145/129
f 97/156/136 131/126/100 99/114/104
f 130/124/102 96/108/98 98/113/103
f 96/108/98 132/121/108 97/156/136
f 131/110/100 98/116/103 99/157/104
f 84/69/60 136/158/137 149/159/138
f 7/5/5 134/160/139 92/102/92
f 92/102/92 135/99/89 90/100/90
f 144/161/140 140/162/141 136/158/137
f 137/163/142 83/76/67 150/164/143
f 136/158/137 150/164/143 149/159/138
f 138/104/94 8/40/36 93/128/112
f 6/38/34 139/105/95 91/127/111
f 139/105/95 93/128/112 91/127/111
f 141/165/144 71/81/72 67/83/74
f 137/163/142 67/83/74 60/166/145
f 140/162/141 137/163/142 136/158/137
f 143/167/146 69/84/75 71/168/72
f 142/169/147 141/165/144 140/162/141
f 142/169/147 76/86/77 69/84/75
f 75/88/79 144/161/140 73/89/80
f 75/88/79 146/170/148 145/171/149
f 140/162/141 146/170/148 142/169/147
f 73/89/80 136/158/137 58/71/62
f 147/172/150 135/99/89 134/160/139
f 148/173/151 56/93/83 135/99/89
f 54/73/64 147/172/150 134/160/139
f 149/159/138 148/173/151 147/172/150
f 150/164/143 80/96/86 148/173/151
f 79/95/85 149/159/138 147/172/150
f 154/174/152 151/175/153 152/176/154
f 152/176/154 114/141/125 115/136/120
f 117/144/128 152/176/154 115/136/120
f 153/142/126 117/144/128 116/143/127
f 5/1/1 56/93/83 55/2/2
f 23/4/4 3/46/42 7/5/5
f 61/7/7 10/14/14 9/8/8
f 1/3/3 3/46/42 26/10/10
f 5/1/1 1/3/3 21/12/12
f 10/14/14 14/24/24 13/15/15
f 63/16/16 62/9/9 9/8/8
f 64/18/18 12/115/25 10/14/14
f 50/19/19 49/177/31 19/20/20
f 9/8/8 13/15/15 15/22/22
f 10/14/14 12/115/25 16/23/23
f 12/25/25 11/117/17 15/26/22
f 17/28/26 18/36/32 42/29/27
f 51/31/29 18/36/32 17/28/26
f 52/32/30 17/28/26 19/33/20
f 51/31/29 50/68/19 20/35/21
f 24/13/13 21/12/12 2/37/33
f 2/37/33 21/12/12 23/4/4
f 4/39/35 23/4/4 22/6/6
f 25/11/11 26/10/10 28/41/37
f 37/43/39 29/53/49 30/44/40
f 3/46/42 23/4/4 28/41/37
f 1/3/3 25/11/11 27/42/38
f 32/47/43 30/44/40 34/48/44
f 39/50/46 38/45/41 30/44/40
f 39/50/46 32/47/43 31/51/47
f 40/52/48 31/51/47 29/53/49
f 33/54/50 35/57/53 88/55/51
f 31/51/47 32/47/43 36/49/45
f 31/51/47 35/57/53 33/54/50
f 30/44/40 29/53/49 33/54/50
f 27/42/38 40/52/48 37/43/39
f 28/41/37 39/50/46 40/52/48
f 28/41/37 23/4/4 38/45/41
f 21/12/12 37/43/39 38/45/41
f 41/30/28 42/29/27 44/58/54
f 19/33/20 17/28/26 41/30/28
f 44/61/54 47/178/59 45/62/56
f 20/21/21 19/20/20 43/63/55
f 45/64/56 47/179/59 48/65/57
f 18/36/32 20/35/21 45/64/56
f 42/29/27 18/36/32 46/66/58
f 42/29/27 48/65/57 47/67/59
f 14/24/24 16/23/23 50/68/19
f 13/15/15 52/32/30 49/34/31
f 13/15/15 14/24/24 51/31/29
f 15/26/22 49/177/31 50/19/19
f 84/69/60 82/79/70 57/70/61
f 7/5/5 3/46/42 53/72/63
f 3/46/42 1/3/3 55/2/2
f 65/74/65 74/91/81 72/75/66
f 83/76/67 60/166/145 59/77/68
f 85/78/69 59/77/68 57/70/61
f 8/40/36 64/18/18 61/7/7
f 6/38/34 2/37/33 62/9/9
f 4/39/35 61/7/7 62/9/9
f 66/80/71 67/83/74 71/81/72
f 59/77/68 60/166/145 67/83/74
f 59/77/68 66/80/71 65/74/65
f 70/82/73 71/168/72 69/84/75
f 66/80/71 70/82/73 68/85/76
f 68/85/76 69/84/75 76/86/77
f 72/75/66 74/91/81 75/88/79
f 75/88/79 74/91/81 77/87/78
f 65/74/65 68/85/76 77/87/78
f 57/70/61 72/75/66 73/89/80
f 55/2/2 81/94/84 78/92/82
f 56/93/83 80/96/86 81/94/84
f 54/73/64 53/72/63 78/92/82
f 81/94/84 85/78/69 82/79/70
f 80/96/86 83/76/67 85/78/69
f 79/95/85 78/92/82 82/79/70
f 86/56/52 88/55/51 89/97/87
f 33/54/50 86/56/52 87/98/88
f 36/49/45 34/48/44 87/98/88
f 36/49/45 89/97/87 88/55/51
f 135/99/89 56/93/83 5/1/1
f 105/101/91 22/6/6 7/5/5
f 94/103/93 95/109/99 138/104/94
f 90/100/90 106/130/114 107/106/96
f 104/107/97 90/100/90 5/1/1
f 96/108/98 97/156/136 95/109/99
f 63/16/16 11/17/17 94/103/93
f 95/109/99 12/115/25 64/18/18
f 131/110/100 103/150/110 102/111/101
f 98/113/103 96/108/98 94/103/93
f 95/109/99 97/156/136 99/114/104
f 12/25/25 99/157/104 98/116/103
f 100/118/105 122/146/130 123/119/106
f 100/118/105 101/120/107 132/121/108
f 102/123/101 100/118/105 133/122/109
f 132/121/108 101/120/107 103/125/110
f 91/127/111 104/107/97 24/13/13
f 91/127/111 93/128/112 105/101/91
f 93/128/112 8/40/36 22/6/6
f 109/129/113 107/106/96 106/130/114
f 111/132/116 110/140/124 118/133/117
f 92/102/92 107/106/96 109/129/113
f 108/131/115 106/130/114 90/100/90
f 113/135/119 117/144/128 115/136/120
f 120/137/121 113/135/119 111/132/116
f 112/138/122 113/135/119 120/137/121
f 110/140/124 112/138/122 121/139/123
f 114/141/125 151/175/153 153/142/126
f 112/138/122 116/143/127 117/144/128
f 114/141/125 116/143/127 112/138/122
f 111/132/116 115/136/120 114/141/125
f 118/133/117 121/139/123 108/131/115
f 121/139/123 120/137/121 109/129/113
f 109/129/113 120/137/121 119/134/118
f 119/134/118 118/133/117 104/107/97
f 125/145/129 123/119/106 122/146/130
f 102/123/101 124/180/131 122/146/130
f 126/148/132 128/181/135 125/149/129
f 103/150/110 125/149/129 124/151/131
f 129/152/133 128/182/135 126/153/132
f 101/120/107 127/154/134 126/153/132
f 123/119/106 129/152/133 127/154/134
f 128/155/135 129/152/133 123/119/106
f 97/156/136 132/121/108 131/126/100
f 130/124/102 133/122/109 96/108/98
f 96/108/98 133/122/109 132/121/108
f 131/110/100 130/112/102 98/116/103
f 84/69/60 58/71/62 136/158/137
f 7/5/5 54/73/64 134/160/139
f 92/102/92 134/160/139 135/99/89
f 144/161/140 145/171/149 140/162/141
f 137/163/142 60/166/145 83/76/67
f 136/158/137 137/163/142 150/164/143
f 138/104/94 64/18/18 8/40/36
f 6/38/34 63/16/16 139/105/95
f 139/105/95 138/104/94 93/128/112
f 141/165/144 143/167/146 71/81/72
f 137/163/142 141/165/144 67/83/74
f 140/162/141 141/165/144 137/163/142
f 143/167/146 142/169/147 69/84/75
f 142/169/147 143/167/146 141/165/144
f 142/169/147 146/170/148 76/86/77
f 75/88/79 145/171/149 144/161/140
f 75/88/79 76/90/77 146/170/148
f 140/162/141 145/171/149 146/170/148
f 73/89/80 144/161/140 136/158/137
f 147/172/150 148/173/151 135/99/89
f 148/173/151 80/96/86 56/93/83
f 54/73/64 79/95/85 147/172/150
f 149/159/138 150/164/143 148/173/151
f 150/164/143 83/76/67 80/96/86
f 79/95/85 84/69/60 149/159/138
f 154/174/152 153/142/126 151/175/153
f 152/176/154 151/175/153 114/141/125
f 117/144/128 154/174/152 152/176/154
f 153/142/126 154/174/152 117/144/128
